<?xml version="1.0" encoding="UTF-8"?>
<svg version="1.1" xmlns="http://www.w3.org/2000/svg" width="320" height="320">
<path d="M0 0 C23.1 0 46.2 0 70 0 C70 3.3 70 6.6 70 10 C73.3 10 76.6 10 80 10 C80 13.3 80 16.6 80 20 C83.3 20 86.6 20 90 20 C90 16.7 90 13.4 90 10 C93.3 10 96.6 10 100 10 C100 6.7 100 3.4 100 0 C133 0 166 0 200 0 C200 3.3 200 6.6 200 10 C209.9 10 219.8 10 230 10 C230 13.3 230 16.6 230 20 C233.3 20 236.6 20 240 20 C240 23.3 240 26.6 240 30 C243.3 30 246.6 30 250 30 C250 33.3 250 36.6 250 40 C253.3 40 256.6 40 260 40 C260 66.4 260 92.8 260 120 C263.3 120 266.6 120 270 120 C270 123.3 270 126.6 270 130 C273.3 130 276.6 130 280 130 C280 136.6 280 143.2 280 150 C276.7 150 273.4 150 270 150 C270 153.3 270 156.6 270 160 C263.4 160 256.8 160 250 160 C250 173.2 250 186.4 250 200 C246.7 200 243.4 200 240 200 C240 203.3 240 206.6 240 210 C226.8 210 213.6 210 200 210 C200 206.7 200 203.4 200 200 C196.7 200 193.4 200 190 200 C190 203.3 190 206.6 190 210 C176.8 210 163.6 210 150 210 C150 206.7 150 203.4 150 200 C143.4 200 136.8 200 130 200 C130 203.3 130 206.6 130 210 C116.8 210 103.6 210 90 210 C90 206.7 90 203.4 90 200 C86.7 200 83.4 200 80 200 C80 203.3 80 206.6 80 210 C70.1 210 60.2 210 50 210 C50 196.8 50 183.6 50 170 C36.8 170 23.6 170 10 170 C10 166.7 10 163.4 10 160 C6.7 160 3.4 160 0 160 C0 156.7 0 153.4 0 150 C-6.6 150 -13.2 150 -20 150 C-20 146.7 -20 143.4 -20 140 C-23.3 140 -26.6 140 -30 140 C-30 136.7 -30 133.4 -30 130 C-33.3 130 -36.6 130 -40 130 C-40 100.3 -40 70.6 -40 40 C-36.7 40 -33.4 40 -30 40 C-30 33.4 -30 26.8 -30 20 C-26.7 20 -23.4 20 -20 20 C-20 16.7 -20 13.4 -20 10 C-13.4 10 -6.8 10 0 10 C0 6.7 0 3.4 0 0 Z " fill="#846F16" transform="translate(40,50)"/>
<path d="M0 0 C23.1 0 46.2 0 70 0 C70 3.3 70 6.6 70 10 C73.3 10 76.6 10 80 10 C80 19.9 80 29.8 80 40 C83.3 40 86.6 40 90 40 C90 56.5 90 73 90 90 C93.3 90 96.6 90 100 90 C100 99.9 100 109.8 100 120 C96.7 120 93.4 120 90 120 C90 123.3 90 126.6 90 130 C83.4 130 76.8 130 70 130 C70 133.3 70 136.6 70 140 C63.4 140 56.8 140 50 140 C50 143.3 50 146.6 50 150 C26.9 150 3.8 150 -20 150 C-20 146.7 -20 143.4 -20 140 C-23.3 140 -26.6 140 -30 140 C-30 136.7 -30 133.4 -30 130 C-33.3 130 -36.6 130 -40 130 C-40 100.3 -40 70.6 -40 40 C-36.7 40 -33.4 40 -30 40 C-30 33.4 -30 26.8 -30 20 C-26.7 20 -23.4 20 -20 20 C-20 16.7 -20 13.4 -20 10 C-13.4 10 -6.8 10 0 10 C0 6.7 0 3.4 0 0 Z " fill="#99E550" transform="translate(40,50)"/>
<path d="M0 0 C33 0 66 0 100 0 C100 3.3 100 6.6 100 10 C109.9 10 119.8 10 130 10 C130 13.3 130 16.6 130 20 C133.3 20 136.6 20 140 20 C140 23.3 140 26.6 140 30 C143.3 30 146.6 30 150 30 C150 49.8 150 69.6 150 90 C146.7 90 143.4 90 140 90 C140 99.9 140 109.8 140 120 C133.4 120 126.8 120 120 120 C120 123.3 120 126.6 120 130 C100.2 130 80.4 130 60 130 C60 123.4 60 116.8 60 110 C53.4 110 46.8 110 40 110 C40 106.7 40 103.4 40 100 C33.4 100 26.8 100 20 100 C20 93.4 20 86.8 20 80 C13.4 80 6.8 80 0 80 C0 66.8 0 53.6 0 40 C-6.6 40 -13.2 40 -20 40 C-20 33.4 -20 26.8 -20 20 C-16.7 20 -13.4 20 -10 20 C-10 16.7 -10 13.4 -10 10 C-6.7 10 -3.4 10 0 10 C0 6.7 0 3.4 0 0 Z " fill="#8125A4" transform="translate(140,50)"/>
<path d="M0 0 C3.3 0 6.6 0 10 0 C10 13.2 10 26.4 10 40 C16.6 40 23.2 40 30 40 C30 46.6 30 53.2 30 60 C36.6 60 43.2 60 50 60 C50 63.3 50 66.6 50 70 C56.6 70 63.2 70 70 70 C70 73.3 70 76.6 70 80 C63.4 80 56.8 80 50 80 C50 83.3 50 86.6 50 90 C46.7 90 43.4 90 40 90 C40 93.3 40 96.6 40 100 C36.7 100 33.4 100 30 100 C30 103.3 30 106.6 30 110 C23.4 110 16.8 110 10 110 C10 113.3 10 116.6 10 120 C-3.2 120 -16.4 120 -30 120 C-30 123.3 -30 126.6 -30 130 C-26.7 130 -23.4 130 -20 130 C-20 133.3 -20 136.6 -20 140 C-13.4 140 -6.8 140 0 140 C0 136.7 0 133.4 0 130 C13.2 130 26.4 130 40 130 C40 133.3 40 136.6 40 140 C46.6 140 53.2 140 60 140 C60 146.6 60 153.2 60 160 C53.4 160 46.8 160 40 160 C40 163.3 40 166.6 40 170 C26.8 170 13.6 170 0 170 C0 166.7 0 163.4 0 160 C-3.3 160 -6.6 160 -10 160 C-10 163.3 -10 166.6 -10 170 C-19.9 170 -29.8 170 -40 170 C-40 156.8 -40 143.6 -40 130 C-53.2 130 -66.4 130 -80 130 C-80 126.7 -80 123.4 -80 120 C-83.3 120 -86.6 120 -90 120 C-90 116.7 -90 113.4 -90 110 C-73.5 110 -57 110 -40 110 C-40 106.7 -40 103.4 -40 100 C-33.4 100 -26.8 100 -20 100 C-20 96.7 -20 93.4 -20 90 C-13.4 90 -6.8 90 0 90 C0 86.7 0 83.4 0 80 C3.3 80 6.6 80 10 80 C10 70.1 10 60.2 10 50 C6.7 50 3.4 50 0 50 C0 33.5 0 17 0 0 Z " fill="#76A640" transform="translate(130,90)"/>
<path d="M0 0 C16.5 0 33 0 50 0 C50 3.3 50 6.6 50 10 C53.3 10 56.6 10 60 10 C60 13.3 60 16.6 60 20 C66.6 20 73.2 20 80 20 C80 16.7 80 13.4 80 10 C93.2 10 106.4 10 120 10 C120 13.3 120 16.6 120 20 C126.6 20 133.2 20 140 20 C140 26.6 140 33.2 140 40 C133.4 40 126.8 40 120 40 C120 43.3 120 46.6 120 50 C106.8 50 93.6 50 80 50 C80 46.7 80 43.4 80 40 C76.7 40 73.4 40 70 40 C70 43.3 70 46.6 70 50 C60.1 50 50.2 50 40 50 C40 36.8 40 23.6 40 10 C26.8 10 13.6 10 0 10 C0 6.7 0 3.4 0 0 Z " fill="#76A640" transform="translate(50,210)"/>
<path d="M0 0 C3.3 0 6.6 0 10 0 C10 26.4 10 52.8 10 80 C13.3 80 16.6 80 20 80 C20 83.3 20 86.6 20 90 C23.3 90 26.6 90 30 90 C30 96.6 30 103.2 30 110 C26.7 110 23.4 110 20 110 C20 113.3 20 116.6 20 120 C13.4 120 6.8 120 0 120 C0 113.4 0 106.8 0 100 C-3.3 100 -6.6 100 -10 100 C-10 103.3 -10 106.6 -10 110 C-26.5 110 -43 110 -60 110 C-60 106.7 -60 103.4 -60 100 C-66.6 100 -73.2 100 -80 100 C-80 96.7 -80 93.4 -80 90 C-63.5 90 -47 90 -30 90 C-30 86.7 -30 83.4 -30 80 C-23.4 80 -16.8 80 -10 80 C-10 70.1 -10 60.2 -10 50 C-6.7 50 -3.4 50 0 50 C0 33.5 0 17 0 0 Z " fill="#000000" transform="translate(290,90)"/>
<path d="M0 0 C6.6 0 13.2 0 20 0 C20 3.3 20 6.6 20 10 C23.3 10 26.6 10 30 10 C30 13.3 30 16.6 30 20 C36.6 20 43.2 20 50 20 C50 23.3 50 26.6 50 30 C43.4 30 36.8 30 30 30 C30 33.3 30 36.6 30 40 C23.4 40 16.8 40 10 40 C10 46.6 10 53.2 10 60 C3.4 60 -3.2 60 -10 60 C-10 56.7 -10 53.4 -10 50 C-23.2 50 -36.4 50 -50 50 C-50 53.3 -50 56.6 -50 60 C-56.6 60 -63.2 60 -70 60 C-70 56.7 -70 53.4 -70 50 C-73.3 50 -76.6 50 -80 50 C-80 46.7 -80 43.4 -80 40 C-66.8 40 -53.6 40 -40 40 C-40 36.7 -40 33.4 -40 30 C-33.4 30 -26.8 30 -20 30 C-20 26.7 -20 23.4 -20 20 C-16.7 20 -13.4 20 -10 20 C-10 16.7 -10 13.4 -10 10 C-6.7 10 -3.4 10 0 10 C0 6.7 0 3.4 0 0 Z " fill="#B69B2D" transform="translate(180,170)"/>
<path d="M0 0 C9.9 0 19.8 0 30 0 C30 3.3 30 6.6 30 10 C33.3 10 36.6 10 40 10 C40 19.9 40 29.8 40 40 C36.7 40 33.4 40 30 40 C30 43.3 30 46.6 30 50 C20.1 50 10.2 50 0 50 C0 46.7 0 43.4 0 40 C-3.3 40 -6.6 40 -10 40 C-10 30.1 -10 20.2 -10 10 C-6.7 10 -3.4 10 0 10 C0 6.7 0 3.4 0 0 Z " fill="#FFFFFF" transform="translate(80,100)"/>
<path d="M0 0 C9.9 0 19.8 0 30 0 C30 3.3 30 6.6 30 10 C33.3 10 36.6 10 40 10 C40 19.9 40 29.8 40 40 C36.7 40 33.4 40 30 40 C30 43.3 30 46.6 30 50 C20.1 50 10.2 50 0 50 C0 46.7 0 43.4 0 40 C-3.3 40 -6.6 40 -10 40 C-10 30.1 -10 20.2 -10 10 C-6.7 10 -3.4 10 0 10 C0 6.7 0 3.4 0 0 Z " fill="#FFFFFF" transform="translate(10,100)"/>
<path d="M0 0 C3.3 0 6.6 0 10 0 C10 13.2 10 26.4 10 40 C6.7 40 3.4 40 0 40 C0 46.6 0 53.2 0 60 C-16.5 60 -33 60 -50 60 C-50 56.7 -50 53.4 -50 50 C-56.6 50 -63.2 50 -70 50 C-70 46.7 -70 43.4 -70 40 C-53.5 40 -37 40 -20 40 C-20 36.7 -20 33.4 -20 30 C-13.4 30 -6.8 30 0 30 C0 20.1 0 10.2 0 0 Z " fill="#5C1776" transform="translate(280,140)"/>
<path d="M0 0 C13.2 0 26.4 0 40 0 C40 9.9 40 19.8 40 30 C26.8 30 13.6 30 0 30 C0 20.1 0 10.2 0 0 Z " fill="#99E550" transform="translate(240,230)"/>
<path d="M0 0 C13.2 0 26.4 0 40 0 C40 9.9 40 19.8 40 30 C26.8 30 13.6 30 0 30 C0 20.1 0 10.2 0 0 Z " fill="#99E550" transform="translate(190,230)"/>
<path d="M0 0 C16.5 0 33 0 50 0 C50 3.3 50 6.6 50 10 C53.3 10 56.6 10 60 10 C60 13.3 60 16.6 60 20 C56.7 20 53.4 20 50 20 C50 26.6 50 33.2 50 40 C56.6 40 63.2 40 70 40 C70 43.3 70 46.6 70 50 C60.1 50 50.2 50 40 50 C40 36.8 40 23.6 40 10 C26.8 10 13.6 10 0 10 C0 6.7 0 3.4 0 0 Z " fill="#000000" transform="translate(50,210)"/>
<path d="M0 0 C33 0 66 0 100 0 C100 3.3 100 6.6 100 10 C67 10 34 10 0 10 C0 6.7 0 3.4 0 0 Z " fill="#000000" transform="translate(140,50)"/>
<path d="M0 0 C3.3 0 6.6 0 10 0 C10 13.2 10 26.4 10 40 C6.7 40 3.4 40 0 40 C0 33.4 0 26.8 0 20 C-13.2 20 -26.4 20 -40 20 C-40 16.7 -40 13.4 -40 10 C-26.8 10 -13.6 10 0 10 C0 6.7 0 3.4 0 0 Z " fill="#000000" transform="translate(280,210)"/>
<path d="M0 0 C3.3 0 6.6 0 10 0 C10 13.2 10 26.4 10 40 C16.6 40 23.2 40 30 40 C30 43.3 30 46.6 30 50 C20.1 50 10.2 50 0 50 C0 33.5 0 17 0 0 Z " fill="#000000" transform="translate(130,90)"/>
<path d="M0 0 C23.1 0 46.2 0 70 0 C70 3.3 70 6.6 70 10 C46.9 10 23.8 10 0 10 C0 6.7 0 3.4 0 0 Z " fill="#000000" transform="translate(40,50)"/>
<path d="M0 0 C16.5 0 33 0 50 0 C50 3.3 50 6.6 50 10 C33.5 10 17 10 0 10 C0 6.7 0 3.4 0 0 Z " fill="#000000" transform="translate(230,190)"/>
<path d="M0 0 C3.3 0 6.6 0 10 0 C10 3.3 10 6.6 10 10 C16.6 10 23.2 10 30 10 C30 13.3 30 16.6 30 20 C23.4 20 16.8 20 10 20 C10 23.3 10 26.6 10 30 C6.7 30 3.4 30 0 30 C0 20.1 0 10.2 0 0 Z " fill="#000000" transform="translate(170,150)"/>
<path d="M0 0 C13.2 0 26.4 0 40 0 C40 3.3 40 6.6 40 10 C26.8 10 13.6 10 0 10 C0 6.7 0 3.4 0 0 Z " fill="#000000" transform="translate(240,250)"/>
<path d="M0 0 C13.2 0 26.4 0 40 0 C40 3.3 40 6.6 40 10 C26.8 10 13.6 10 0 10 C0 6.7 0 3.4 0 0 Z " fill="#000000" transform="translate(190,250)"/>
<path d="M0 0 C13.2 0 26.4 0 40 0 C40 3.3 40 6.6 40 10 C26.8 10 13.6 10 0 10 C0 6.7 0 3.4 0 0 Z " fill="#000000" transform="translate(130,250)"/>
<path d="M0 0 C13.2 0 26.4 0 40 0 C40 3.3 40 6.6 40 10 C26.8 10 13.6 10 0 10 C0 6.7 0 3.4 0 0 Z " fill="#99E550" transform="translate(130,240)"/>
<path d="M0 0 C13.2 0 26.4 0 40 0 C40 3.3 40 6.6 40 10 C26.8 10 13.6 10 0 10 C0 6.7 0 3.4 0 0 Z " fill="#76A640" transform="translate(240,230)"/>
<path d="M0 0 C13.2 0 26.4 0 40 0 C40 3.3 40 6.6 40 10 C26.8 10 13.6 10 0 10 C0 6.7 0 3.4 0 0 Z " fill="#76A640" transform="translate(190,230)"/>
<path d="M0 0 C6.6 0 13.2 0 20 0 C20 6.6 20 13.2 20 20 C13.4 20 6.8 20 0 20 C0 13.4 0 6.8 0 0 Z " fill="#000000" transform="translate(170,230)"/>
<path d="M0 0 C13.2 0 26.4 0 40 0 C40 3.3 40 6.6 40 10 C26.8 10 13.6 10 0 10 C0 6.7 0 3.4 0 0 Z " fill="#000000" transform="translate(190,220)"/>
<path d="M0 0 C13.2 0 26.4 0 40 0 C40 3.3 40 6.6 40 10 C26.8 10 13.6 10 0 10 C0 6.7 0 3.4 0 0 Z " fill="#000000" transform="translate(130,220)"/>
<path d="M0 0 C13.2 0 26.4 0 40 0 C40 3.3 40 6.6 40 10 C26.8 10 13.6 10 0 10 C0 6.7 0 3.4 0 0 Z " fill="#000000" transform="translate(100,200)"/>
<path d="M0 0 C6.6 0 13.2 0 20 0 C20 6.6 20 13.2 20 20 C13.4 20 6.8 20 0 20 C0 13.4 0 6.8 0 0 Z " fill="#76A640" transform="translate(300,180)"/>
<path d="M0 0 C3.3 0 6.6 0 10 0 C10 13.2 10 26.4 10 40 C6.7 40 3.4 40 0 40 C0 26.8 0 13.6 0 0 Z " fill="#000000" transform="translate(0,140)"/>
<path d="M0 0 C6.6 0 13.2 0 20 0 C20 6.6 20 13.2 20 20 C13.4 20 6.8 20 0 20 C0 13.4 0 6.8 0 0 Z " fill="#000000" transform="translate(90,110)"/>
<path d="M0 0 C6.6 0 13.2 0 20 0 C20 6.6 20 13.2 20 20 C13.4 20 6.8 20 0 20 C0 13.4 0 6.8 0 0 Z " fill="#000000" transform="translate(20,110)"/>
<path d="M0 0 C3.3 0 6.6 0 10 0 C10 3.3 10 6.6 10 10 C13.3 10 16.6 10 20 10 C20 13.3 20 16.6 20 20 C13.4 20 6.8 20 0 20 C0 13.4 0 6.8 0 0 Z " fill="#99E550" transform="translate(100,230)"/>
<path d="M0 0 C6.6 0 13.2 0 20 0 C20 6.6 20 13.2 20 20 C16.7 20 13.4 20 10 20 C10 16.7 10 13.4 10 10 C6.7 10 3.4 10 0 10 C0 6.7 0 3.4 0 0 Z " fill="#000000" transform="translate(110,230)"/>
<path d="M0 0 C9.9 0 19.8 0 30 0 C30 3.3 30 6.6 30 10 C20.1 10 10.2 10 0 10 C0 6.7 0 3.4 0 0 Z " fill="#000000" transform="translate(240,60)"/>
<path d="M0 0 C3.3 0 6.6 0 10 0 C10 6.6 10 13.2 10 20 C6.7 20 3.4 20 0 20 C0 13.4 0 6.8 0 0 Z " fill="#000000" transform="translate(230,230)"/>
<path d="M0 0 C6.6 0 13.2 0 20 0 C20 3.3 20 6.6 20 10 C13.4 10 6.8 10 0 10 C0 6.7 0 3.4 0 0 Z " fill="#846F16" transform="translate(170,220)"/>
<path d="M0 0 C6.6 0 13.2 0 20 0 C20 3.3 20 6.6 20 10 C13.4 10 6.8 10 0 10 C0 6.7 0 3.4 0 0 Z " fill="#000000" transform="translate(140,190)"/>
<path d="M0 0 C6.6 0 13.2 0 20 0 C20 3.3 20 6.6 20 10 C13.4 10 6.8 10 0 10 C0 6.7 0 3.4 0 0 Z " fill="#000000" transform="translate(20,190)"/>
<path d="M0 0 C3.3 0 6.6 0 10 0 C10 6.6 10 13.2 10 20 C6.7 20 3.4 20 0 20 C0 13.4 0 6.8 0 0 Z " fill="#000000" transform="translate(310,180)"/>
<path d="M0 0 C6.6 0 13.2 0 20 0 C20 3.3 20 6.6 20 10 C13.4 10 6.8 10 0 10 C0 6.7 0 3.4 0 0 Z " fill="#000000" transform="translate(210,180)"/>
<path d="M0 0 C6.6 0 13.2 0 20 0 C20 3.3 20 6.6 20 10 C13.4 10 6.8 10 0 10 C0 6.7 0 3.4 0 0 Z " fill="#000000" transform="translate(50,170)"/>
<path d="M0 0 C3.3 0 6.6 0 10 0 C10 6.6 10 13.2 10 20 C6.7 20 3.4 20 0 20 C0 13.4 0 6.8 0 0 Z " fill="#000000" transform="translate(0,90)"/>
<path d="M0 0 C3.3 0 6.6 0 10 0 C10 6.6 10 13.2 10 20 C6.7 20 3.4 20 0 20 C0 13.4 0 6.8 0 0 Z " fill="#000000" transform="translate(120,70)"/>
<path d="M0 0 C3.3 0 6.6 0 10 0 C10 6.6 10 13.2 10 20 C6.7 20 3.4 20 0 20 C0 13.4 0 6.8 0 0 Z " fill="#000000" transform="translate(10,70)"/>
<path d="M0 0 C6.6 0 13.2 0 20 0 C20 3.3 20 6.6 20 10 C13.4 10 6.8 10 0 10 C0 6.7 0 3.4 0 0 Z " fill="#000000" transform="translate(20,60)"/>
<path d="M0 0 C3.3 0 6.6 0 10 0 C10 3.3 10 6.6 10 10 C6.7 10 3.4 10 0 10 C0 6.7 0 3.4 0 0 Z " fill="#76A640" transform="translate(100,230)"/>
<path d="M0 0 C3.3 0 6.6 0 10 0 C10 3.3 10 6.6 10 10 C6.7 10 3.4 10 0 10 C0 6.7 0 3.4 0 0 Z " fill="#000000" transform="translate(40,200)"/>
<path d="M0 0 C3.3 0 6.6 0 10 0 C10 3.3 10 6.6 10 10 C6.7 10 3.4 10 0 10 C0 6.7 0 3.4 0 0 Z " fill="#99E550" transform="translate(300,180)"/>
<path d="M0 0 C3.3 0 6.6 0 10 0 C10 3.3 10 6.6 10 10 C6.7 10 3.4 10 0 10 C0 6.7 0 3.4 0 0 Z " fill="#000000" transform="translate(160,180)"/>
<path d="M0 0 C3.3 0 6.6 0 10 0 C10 3.3 10 6.6 10 10 C6.7 10 3.4 10 0 10 C0 6.7 0 3.4 0 0 Z " fill="#000000" transform="translate(10,180)"/>
<path d="M0 0 C3.3 0 6.6 0 10 0 C10 3.3 10 6.6 10 10 C6.7 10 3.4 10 0 10 C0 6.7 0 3.4 0 0 Z " fill="#000000" transform="translate(200,170)"/>
<path d="M0 0 C3.3 0 6.6 0 10 0 C10 3.3 10 6.6 10 10 C6.7 10 3.4 10 0 10 C0 6.7 0 3.4 0 0 Z " fill="#000000" transform="translate(70,160)"/>
<path d="M0 0 C3.3 0 6.6 0 10 0 C10 3.3 10 6.6 10 10 C6.7 10 3.4 10 0 10 C0 6.7 0 3.4 0 0 Z " fill="#000000" transform="translate(40,160)"/>
<path d="M0 0 C3.3 0 6.6 0 10 0 C10 3.3 10 6.6 10 10 C6.7 10 3.4 10 0 10 C0 6.7 0 3.4 0 0 Z " fill="#000000" transform="translate(160,140)"/>
<path d="M0 0 C3.3 0 6.6 0 10 0 C10 3.3 10 6.6 10 10 C6.7 10 3.4 10 0 10 C0 6.7 0 3.4 0 0 Z " fill="#000000" transform="translate(280,80)"/>
<path d="M0 0 C3.3 0 6.6 0 10 0 C10 3.3 10 6.6 10 10 C6.7 10 3.4 10 0 10 C0 6.7 0 3.4 0 0 Z " fill="#000000" transform="translate(270,70)"/>
<path d="M0 0 C3.3 0 6.6 0 10 0 C10 3.3 10 6.6 10 10 C6.7 10 3.4 10 0 10 C0 6.7 0 3.4 0 0 Z " fill="#000000" transform="translate(130,60)"/>
<path d="M0 0 C3.3 0 6.6 0 10 0 C10 3.3 10 6.6 10 10 C6.7 10 3.4 10 0 10 C0 6.7 0 3.4 0 0 Z " fill="#000000" transform="translate(110,60)"/>
</svg>
