<?xml version="1.0" encoding="UTF-8" standalone="no"?>
<svg
   version="1.1"
   width="320"
   height="320"
   id="svg60"
   sodipodi:docname="logo_turtile.svg"
   inkscape:version="1.4 (e7c3feb100, 2024-10-09)"
   xmlns:inkscape="http://www.inkscape.org/namespaces/inkscape"
   xmlns:sodipodi="http://sodipodi.sourceforge.net/DTD/sodipodi-0.dtd"
   xmlns="http://www.w3.org/2000/svg"
   xmlns:svg="http://www.w3.org/2000/svg">
  <defs
     id="defs60" />
  <sodipodi:namedview
     id="namedview60"
     pagecolor="#505050"
     bordercolor="#eeeeee"
     borderopacity="1"
     inkscape:showpageshadow="0"
     inkscape:pageopacity="0"
     inkscape:pagecheckerboard="0"
     inkscape:deskcolor="#505050"
     inkscape:zoom="2.6649087"
     inkscape:cx="180.68161"
     inkscape:cy="169.04894"
     inkscape:window-width="1880"
     inkscape:window-height="1080"
     inkscape:window-x="0"
     inkscape:window-y="0"
     inkscape:window-maximized="1"
     inkscape:current-layer="svg60" />
  <path
     d="m 250,160 h -10 v 10 h -40 v 10 h -10 v -10 h -40 v -10 h 20 v -10 h 70 v -10 h 10 z"
     fill="#846f16"
     transform="translate(40,50)"
     id="path1"
     sodipodi:nodetypes="ccccccccccccccc" />
  <path
     d="m 70,10 v 10 h 10 v 20 h 10 v 50 h 10 v 30 H 90 v 10 H 70 v 10 H 50 v 10 H 0 V 140 H -20 V 130 H -30 V 100 40 h 10 V 20 H 0 V 10 Z"
     fill="#99e550"
     id="path2"
     transform="translate(40,50)"
     sodipodi:nodetypes="cccccccccccccccccccccccccc" />
  <path
     d="m 100,10 v 10 h 30 v 10 h 10 v 10 h 10 v 50 h -10 v 30 h -20 v 10 H 70 V 120 H 60 V 110 H 40 V 100 H 30 V 90 H 20 V 80 H 0 V 40 H -10 V 20 H 0 V 10 Z"
     fill="#8125a4"
     transform="translate(140,50)"
     id="path3"
     sodipodi:nodetypes="ccccccccccccccccccccccccccccc" />
  <path
     d="M 30,60 H 40 V 90 H 30 v 10 H 10 v 10 h -40 v 10 c 0,0 -28.064726,0 -50,0 v -10 h 40 v -10 h 20 V 90 H 0 V 80 H 10 V 50 h 20 z"
     fill="#76a640"
     transform="translate(130,90)"
     id="path4"
     sodipodi:nodetypes="ccccccccccccccccccccc" />
  <path
     d="m 80,20 h 40 V 30 50 L 80,30 Z"
     fill="#76a640"
     transform="translate(50,210)"
     id="path5"
     sodipodi:nodetypes="cccccc" />
  <path
     d="M 0,0 H 10 V 80 H 20 V 90 H 10 v 20 h 10 v 10 H 0 V 100 H -10 V 90 H 0 Z"
     fill="#000000"
     transform="translate(290,90)"
     id="path6"
     sodipodi:nodetypes="ccccccccccccccc" />
  <path
     d="M 0,0 H 20 V 10 H 30 V 20 H 50 V 30 H 30 V 40 H 10 V 50 H -10 -50 V 60 H -70 V 50 H -80 V 40 h 40 V 30 h 20 V 20 h 10 V 10 H 0 Z"
     fill="#b69b2d"
     transform="translate(180,170)"
     id="path7"
     sodipodi:nodetypes="cccccccccccccccccccccccccc" />
  <path
     d="M 0,0 H 10 V 40 H 0 V 50 H -50 V 40 h 30 V 30 H 0 Z"
     fill="#5c1776"
     transform="translate(280,140)"
     id="path10"
     sodipodi:nodetypes="ccccccccccc" />
  <path
     d="M 0,10 H 40 V 20 H 0 Z"
     fill="#99e550"
     transform="translate(240,230)"
     id="path11"
     sodipodi:nodetypes="ccccc" />
  <path
     d="M 0,10 H 40 V 20 H 0 Z"
     fill="#99e550"
     transform="translate(190,230)"
     id="path12"
     sodipodi:nodetypes="ccccc" />
  <path
     d="M0 0 C16.5 0 33 0 50 0 C50 3.3 50 6.6 50 10 C53.3 10 56.6 10 60 10 C60 13.3 60 16.6 60 20 C56.7 20 53.4 20 50 20 C50 26.6 50 33.2 50 40 C56.6 40 63.2 40 70 40 C70 43.3 70 46.6 70 50 C60.1 50 50.2 50 40 50 C40 36.8 40 23.6 40 10 C26.8 10 13.6 10 0 10 C0 6.7 0 3.4 0 0 Z "
     fill="#000000"
     transform="translate(50,210)"
     id="path13" />
  <path
     d="M0 0 C33 0 66 0 100 0 C100 3.3 100 6.6 100 10 C67 10 34 10 0 10 C0 6.7 0 3.4 0 0 Z "
     fill="#000000"
     transform="translate(140,50)"
     id="path14" />
  <path
     d="M0 0 C3.3 0 6.6 0 10 0 C10 13.2 10 26.4 10 40 C6.7 40 3.4 40 0 40 C0 33.4 0 26.8 0 20 C-13.2 20 -26.4 20 -40 20 C-40 16.7 -40 13.4 -40 10 C-26.8 10 -13.6 10 0 10 C0 6.7 0 3.4 0 0 Z "
     fill="#000000"
     transform="translate(280,210)"
     id="path15" />
  <path
     d="M0 0 C3.3 0 6.6 0 10 0 C10 13.2 10 26.4 10 40 C16.6 40 23.2 40 30 40 C30 43.3 30 46.6 30 50 C20.1 50 10.2 50 0 50 C0 33.5 0 17 0 0 Z "
     fill="#000000"
     transform="translate(130,90)"
     id="path16" />
  <path
     d="M0 0 C23.1 0 46.2 0 70 0 C70 3.3 70 6.6 70 10 C46.9 10 23.8 10 0 10 C0 6.7 0 3.4 0 0 Z "
     fill="#000000"
     transform="translate(40,50)"
     id="path17" />
  <path
     d="M0 0 C16.5 0 33 0 50 0 C50 3.3 50 6.6 50 10 C33.5 10 17 10 0 10 C0 6.7 0 3.4 0 0 Z "
     fill="#000000"
     transform="translate(230,190)"
     id="path18" />
  <path
     d="M0 0 C3.3 0 6.6 0 10 0 C10 3.3 10 6.6 10 10 C16.6 10 23.2 10 30 10 C30 13.3 30 16.6 30 20 C23.4 20 16.8 20 10 20 C10 23.3 10 26.6 10 30 C6.7 30 3.4 30 0 30 C0 20.1 0 10.2 0 0 Z "
     fill="#000000"
     transform="translate(170,150)"
     id="path19" />
  <path
     d="M0 0 C13.2 0 26.4 0 40 0 C40 3.3 40 6.6 40 10 C26.8 10 13.6 10 0 10 C0 6.7 0 3.4 0 0 Z "
     fill="#000000"
     transform="translate(240,250)"
     id="path20" />
  <path
     d="M0 0 C13.2 0 26.4 0 40 0 C40 3.3 40 6.6 40 10 C26.8 10 13.6 10 0 10 C0 6.7 0 3.4 0 0 Z "
     fill="#000000"
     transform="translate(190,250)"
     id="path21" />
  <path
     d="M0 0 C13.2 0 26.4 0 40 0 C40 3.3 40 6.6 40 10 C26.8 10 13.6 10 0 10 C0 6.7 0 3.4 0 0 Z "
     fill="#000000"
     transform="translate(130,250)"
     id="path22" />
  <path
     d="M0 0 C13.2 0 26.4 0 40 0 C40 3.3 40 6.6 40 10 C26.8 10 13.6 10 0 10 C0 6.7 0 3.4 0 0 Z "
     fill="#99E550"
     transform="translate(130,240)"
     id="path23" />
  <path
     d="M0 0 C13.2 0 26.4 0 40 0 C40 3.3 40 6.6 40 10 C26.8 10 13.6 10 0 10 C0 6.7 0 3.4 0 0 Z "
     fill="#76A640"
     transform="translate(240,230)"
     id="path24" />
  <path
     d="M0 0 C13.2 0 26.4 0 40 0 C40 3.3 40 6.6 40 10 C26.8 10 13.6 10 0 10 C0 6.7 0 3.4 0 0 Z "
     fill="#76A640"
     transform="translate(190,230)"
     id="path25" />
  <path
     d="M0 0 C6.6 0 13.2 0 20 0 C20 6.6 20 13.2 20 20 C13.4 20 6.8 20 0 20 C0 13.4 0 6.8 0 0 Z "
     fill="#000000"
     transform="translate(170,230)"
     id="path26" />
  <path
     d="M0 0 C13.2 0 26.4 0 40 0 C40 3.3 40 6.6 40 10 C26.8 10 13.6 10 0 10 C0 6.7 0 3.4 0 0 Z "
     fill="#000000"
     transform="translate(190,220)"
     id="path27" />
  <path
     d="M0 0 C13.2 0 26.4 0 40 0 C40 3.3 40 6.6 40 10 C26.8 10 13.6 10 0 10 C0 6.7 0 3.4 0 0 Z "
     fill="#000000"
     transform="translate(130,220)"
     id="path28" />
  <path
     d="M0 0 C13.2 0 26.4 0 40 0 C40 3.3 40 6.6 40 10 C26.8 10 13.6 10 0 10 C0 6.7 0 3.4 0 0 Z "
     fill="#000000"
     transform="translate(100,200)"
     id="path29" />
  <path
     d="M 0,10 H 10 V 20 H 0 Z"
     fill="#76a640"
     transform="translate(300,180)"
     id="path30"
     sodipodi:nodetypes="ccccc" />
  <path
     d="M 0,10 H 20 V 20 H 0 Z"
     fill="#99e550"
     transform="translate(100,230)"
     id="path34"
     sodipodi:nodetypes="ccccc" />
  <path
     d="M0 0 C6.6 0 13.2 0 20 0 C20 6.6 20 13.2 20 20 C16.7 20 13.4 20 10 20 C10 16.7 10 13.4 10 10 C6.7 10 3.4 10 0 10 C0 6.7 0 3.4 0 0 Z "
     fill="#000000"
     transform="translate(110,230)"
     id="path35" />
  <path
     d="M0 0 C9.9 0 19.8 0 30 0 C30 3.3 30 6.6 30 10 C20.1 10 10.2 10 0 10 C0 6.7 0 3.4 0 0 Z "
     fill="#000000"
     transform="translate(240,60)"
     id="path36" />
  <path
     d="M0 0 C3.3 0 6.6 0 10 0 C10 6.6 10 13.2 10 20 C6.7 20 3.4 20 0 20 C0 13.4 0 6.8 0 0 Z "
     fill="#000000"
     transform="translate(230,230)"
     id="path37" />
  <path
     d="M0 0 C6.6 0 13.2 0 20 0 C20 3.3 20 6.6 20 10 C13.4 10 6.8 10 0 10 C0 6.7 0 3.4 0 0 Z "
     fill="#846F16"
     transform="translate(170,220)"
     id="path38" />
  <path
     d="M0 0 C6.6 0 13.2 0 20 0 C20 3.3 20 6.6 20 10 C13.4 10 6.8 10 0 10 C0 6.7 0 3.4 0 0 Z "
     fill="#000000"
     transform="translate(140,190)"
     id="path39" />
  <path
     d="M0 0 C6.6 0 13.2 0 20 0 C20 3.3 20 6.6 20 10 C13.4 10 6.8 10 0 10 C0 6.7 0 3.4 0 0 Z "
     fill="#000000"
     transform="translate(20,190)"
     id="path40" />
  <path
     d="M0 0 C3.3 0 6.6 0 10 0 C10 6.6 10 13.2 10 20 C6.7 20 3.4 20 0 20 C0 13.4 0 6.8 0 0 Z "
     fill="#000000"
     transform="translate(310,180)"
     id="path41" />
  <path
     d="M0 0 C6.6 0 13.2 0 20 0 C20 3.3 20 6.6 20 10 C13.4 10 6.8 10 0 10 C0 6.7 0 3.4 0 0 Z "
     fill="#000000"
     transform="translate(210,180)"
     id="path42" />
  <path
     d="M0 0 C6.6 0 13.2 0 20 0 C20 3.3 20 6.6 20 10 C13.4 10 6.8 10 0 10 C0 6.7 0 3.4 0 0 Z "
     fill="#000000"
     transform="translate(50,170)"
     id="path43" />
  <path
     d="M 0,0 H 10 V 90 H 0 Z"
     fill="#000000"
     transform="translate(0,90)"
     id="path44"
     sodipodi:nodetypes="ccccc" />
  <path
     d="M0 0 C3.3 0 6.6 0 10 0 C10 6.6 10 13.2 10 20 C6.7 20 3.4 20 0 20 C0 13.4 0 6.8 0 0 Z "
     fill="#000000"
     transform="translate(120,70)"
     id="path45" />
  <path
     d="M0 0 C3.3 0 6.6 0 10 0 C10 6.6 10 13.2 10 20 C6.7 20 3.4 20 0 20 C0 13.4 0 6.8 0 0 Z "
     fill="#000000"
     transform="translate(10,70)"
     id="path46" />
  <path
     d="M0 0 C6.6 0 13.2 0 20 0 C20 3.3 20 6.6 20 10 C13.4 10 6.8 10 0 10 C0 6.7 0 3.4 0 0 Z "
     fill="#000000"
     transform="translate(20,60)"
     id="path47" />
  <path
     d="M0 0 C3.3 0 6.6 0 10 0 C10 3.3 10 6.6 10 10 C6.7 10 3.4 10 0 10 C0 6.7 0 3.4 0 0 Z "
     fill="#76A640"
     transform="translate(100,230)"
     id="path48" />
  <path
     d="M0 0 C3.3 0 6.6 0 10 0 C10 3.3 10 6.6 10 10 C6.7 10 3.4 10 0 10 C0 6.7 0 3.4 0 0 Z "
     fill="#000000"
     transform="translate(40,200)"
     id="path49" />
  <path
     d="M0 0 C3.3 0 6.6 0 10 0 C10 3.3 10 6.6 10 10 C6.7 10 3.4 10 0 10 C0 6.7 0 3.4 0 0 Z "
     fill="#99E550"
     transform="translate(300,180)"
     id="path50" />
  <path
     d="M0 0 C3.3 0 6.6 0 10 0 C10 3.3 10 6.6 10 10 C6.7 10 3.4 10 0 10 C0 6.7 0 3.4 0 0 Z "
     fill="#000000"
     transform="translate(160,180)"
     id="path51" />
  <path
     d="M0 0 C3.3 0 6.6 0 10 0 C10 3.3 10 6.6 10 10 C6.7 10 3.4 10 0 10 C0 6.7 0 3.4 0 0 Z "
     fill="#000000"
     transform="translate(10,180)"
     id="path52" />
  <path
     d="M0 0 C3.3 0 6.6 0 10 0 C10 3.3 10 6.6 10 10 C6.7 10 3.4 10 0 10 C0 6.7 0 3.4 0 0 Z "
     fill="#000000"
     transform="translate(200,170)"
     id="path53" />
  <path
     d="M0 0 C3.3 0 6.6 0 10 0 C10 3.3 10 6.6 10 10 C6.7 10 3.4 10 0 10 C0 6.7 0 3.4 0 0 Z "
     fill="#000000"
     transform="translate(70,160)"
     id="path54" />
  <path
     d="M0 0 C3.3 0 6.6 0 10 0 C10 3.3 10 6.6 10 10 C6.7 10 3.4 10 0 10 C0 6.7 0 3.4 0 0 Z "
     fill="#000000"
     transform="translate(40,160)"
     id="path55" />
  <path
     d="M0 0 C3.3 0 6.6 0 10 0 C10 3.3 10 6.6 10 10 C6.7 10 3.4 10 0 10 C0 6.7 0 3.4 0 0 Z "
     fill="#000000"
     transform="translate(160,140)"
     id="path56" />
  <path
     d="M0 0 C3.3 0 6.6 0 10 0 C10 3.3 10 6.6 10 10 C6.7 10 3.4 10 0 10 C0 6.7 0 3.4 0 0 Z "
     fill="#000000"
     transform="translate(280,80)"
     id="path57" />
  <path
     d="M0 0 C3.3 0 6.6 0 10 0 C10 3.3 10 6.6 10 10 C6.7 10 3.4 10 0 10 C0 6.7 0 3.4 0 0 Z "
     fill="#000000"
     transform="translate(270,70)"
     id="path58" />
  <path
     d="M0 0 C3.3 0 6.6 0 10 0 C10 3.3 10 6.6 10 10 C6.7 10 3.4 10 0 10 C0 6.7 0 3.4 0 0 Z "
     fill="#000000"
     transform="translate(130,60)"
     id="path59" />
  <path
     d="M0 0 C3.3 0 6.6 0 10 0 C10 3.3 10 6.6 10 10 C6.7 10 3.4 10 0 10 C0 6.7 0 3.4 0 0 Z "
     fill="#000000"
     transform="translate(110,60)"
     id="path60" />
  <path
     d="M0 0 C9.9 0 19.8 0 30 0 C30 3.3 30 6.6 30 10 C33.3 10 36.6 10 40 10 C40 19.9 40 29.8 40 40 C36.7 40 33.4 40 30 40 C30 43.3 30 46.6 30 50 C20.1 50 10.2 50 0 50 C0 46.7 0 43.4 0 40 C-3.3 40 -6.6 40 -10 40 C-10 30.1 -10 20.2 -10 10 C-6.7 10 -3.4 10 0 10 C0 6.7 0 3.4 0 0 Z "
     fill="#FFFFFF"
     transform="translate(80,100)"
     id="path8" />
  <path
     d="M0 0 C9.9 0 19.8 0 30 0 C30 3.3 30 6.6 30 10 C33.3 10 36.6 10 40 10 C40 19.9 40 29.8 40 40 C36.7 40 33.4 40 30 40 C30 43.3 30 46.6 30 50 C20.1 50 10.2 50 0 50 C0 46.7 0 43.4 0 40 C-3.3 40 -6.6 40 -10 40 C-10 30.1 -10 20.2 -10 10 C-6.7 10 -3.4 10 0 10 C0 6.7 0 3.4 0 0 Z "
     fill="#FFFFFF"
     transform="translate(10,100)"
     id="path9" />
  <path
     d="M0 0 C6.6 0 13.2 0 20 0 C20 6.6 20 13.2 20 20 C13.4 20 6.8 20 0 20 C0 13.4 0 6.8 0 0 Z "
     fill="#000000"
     transform="translate(90,110)"
     id="path32" />
  <path
     d="M0 0 C6.6 0 13.2 0 20 0 C20 6.6 20 13.2 20 20 C13.4 20 6.8 20 0 20 C0 13.4 0 6.8 0 0 Z "
     fill="#000000"
     transform="translate(20,110)"
     id="path33" />
</svg>
